<mxfile host="65bd71144e">
    <diagram id="W7Mkh2RLzANtmnkhI0Z8" name="Page-1">
        <mxGraphModel dx="994" dy="1007" grid="0" gridSize="10" guides="1" tooltips="1" connect="1" arrows="1" fold="1" page="0" pageScale="1" pageWidth="850" pageHeight="1100" math="0" shadow="0">
            <root>
                <mxCell id="0"/>
                <mxCell id="1" parent="0"/>
                <mxCell id="151" value="" style="rounded=0;whiteSpace=wrap;html=1;fillColor=#000000;strokeColor=#f1e9e9;" vertex="1" parent="1">
                    <mxGeometry x="350" y="-216" width="1445" height="939" as="geometry"/>
                </mxCell>
                <mxCell id="152" value="" style="rounded=0;whiteSpace=wrap;html=1;strokeColor=#005700;fillColor=#008a00;fontColor=#ffffff;" vertex="1" parent="1">
                    <mxGeometry x="417" y="-59" width="492" height="160" as="geometry"/>
                </mxCell>
                <mxCell id="106" value="" style="rounded=0;whiteSpace=wrap;html=1;strokeColor=#005700;fillColor=#008a00;fontColor=#ffffff;" parent="1" vertex="1">
                    <mxGeometry x="1244" y="115" width="256" height="570" as="geometry"/>
                </mxCell>
                <mxCell id="97" value="" style="rounded=0;whiteSpace=wrap;html=1;strokeColor=#005700;fillColor=#008a00;fontColor=#ffffff;" parent="1" vertex="1">
                    <mxGeometry x="760" y="126" width="436" height="275" as="geometry"/>
                </mxCell>
                <mxCell id="95" style="edgeStyle=none;html=1;exitX=0.5;exitY=1;exitDx=0;exitDy=0;strokeWidth=2;strokeColor=#f1e9e9;" parent="1" source="90" target="93" edge="1">
                    <mxGeometry relative="1" as="geometry">
                        <Array as="points">
                            <mxPoint x="864" y="318"/>
                        </Array>
                    </mxGeometry>
                </mxCell>
                <mxCell id="96" style="edgeStyle=none;html=1;exitX=1;exitY=0.5;exitDx=0;exitDy=0;entryX=0;entryY=0.5;entryDx=0;entryDy=0;strokeWidth=2;strokeColor=#f1e9e9;" parent="1" source="90" target="91" edge="1">
                    <mxGeometry relative="1" as="geometry"/>
                </mxCell>
                <mxCell id="90" value="LoginUseCase" style="rounded=1;whiteSpace=wrap;html=1;strokeColor=#f1e9e9;" parent="1" vertex="1">
                    <mxGeometry x="804" y="194" width="120" height="60" as="geometry"/>
                </mxCell>
                <mxCell id="91" value="LoginApiInterface" style="rounded=1;whiteSpace=wrap;html=1;fillColor=#0050ef;fontColor=#ffffff;strokeColor=#f1e9e9;" parent="1" vertex="1">
                    <mxGeometry x="977" y="194" width="175" height="60" as="geometry"/>
                </mxCell>
                <mxCell id="93" value="TokenStorageInterface" style="rounded=1;whiteSpace=wrap;html=1;fillColor=#0050ef;fontColor=#ffffff;strokeColor=#f1e9e9;" parent="1" vertex="1">
                    <mxGeometry x="982" y="288" width="165" height="60" as="geometry"/>
                </mxCell>
                <mxCell id="101" value="Domain" style="text;html=1;strokeColor=none;fillColor=none;align=center;verticalAlign=middle;whiteSpace=wrap;rounded=0;fontSize=19;" parent="1" vertex="1">
                    <mxGeometry x="766" y="133" width="79" height="38" as="geometry"/>
                </mxCell>
                <mxCell id="102" value="" style="rounded=0;whiteSpace=wrap;html=1;strokeColor=#005700;fillColor=#008a00;fontColor=#ffffff;" parent="1" vertex="1">
                    <mxGeometry x="928" y="-60" width="570" height="161" as="geometry"/>
                </mxCell>
                <mxCell id="103" value="Gateways" style="text;html=1;strokeColor=none;fillColor=none;align=center;verticalAlign=middle;whiteSpace=wrap;rounded=0;fontSize=19;" parent="1" vertex="1">
                    <mxGeometry x="942" y="-54" width="79" height="38" as="geometry"/>
                </mxCell>
                <mxCell id="109" style="edgeStyle=none;html=1;exitX=0.5;exitY=1;exitDx=0;exitDy=0;entryX=0.5;entryY=0;entryDx=0;entryDy=0;fontSize=19;strokeWidth=2;dashed=1;strokeColor=#f1e9e9;" parent="1" source="104" target="91" edge="1">
                    <mxGeometry relative="1" as="geometry"/>
                </mxCell>
                <mxCell id="115" style="edgeStyle=none;html=1;exitX=1;exitY=0.5;exitDx=0;exitDy=0;entryX=0;entryY=0.5;entryDx=0;entryDy=0;fontSize=19;strokeWidth=2;strokeColor=#f1e9e9;" parent="1" source="104" target="114" edge="1">
                    <mxGeometry relative="1" as="geometry"/>
                </mxCell>
                <mxCell id="122" style="edgeStyle=none;html=1;exitX=0.5;exitY=0;exitDx=0;exitDy=0;entryX=0.5;entryY=1;entryDx=0;entryDy=0;strokeWidth=2;strokeColor=#f1e9e9;" edge="1" parent="1" source="104" target="121">
                    <mxGeometry relative="1" as="geometry"/>
                </mxCell>
                <mxCell id="104" value="LoginApiGateway" style="rounded=1;whiteSpace=wrap;html=1;strokeColor=#f1e9e9;" parent="1" vertex="1">
                    <mxGeometry x="977" y="3" width="175" height="60" as="geometry"/>
                </mxCell>
                <mxCell id="107" value="Infra" style="text;html=1;strokeColor=none;fillColor=none;align=center;verticalAlign=middle;whiteSpace=wrap;rounded=0;fontSize=19;" parent="1" vertex="1">
                    <mxGeometry x="1242" y="129" width="79" height="38" as="geometry"/>
                </mxCell>
                <mxCell id="119" style="edgeStyle=none;html=1;exitX=1;exitY=0.5;exitDx=0;exitDy=0;entryX=0;entryY=0.5;entryDx=0;entryDy=0;fontSize=19;strokeWidth=2;strokeColor=#f1e9e9;" parent="1" source="108" target="118" edge="1">
                    <mxGeometry relative="1" as="geometry"/>
                </mxCell>
                <mxCell id="128" style="edgeStyle=none;html=1;exitX=0;exitY=0.5;exitDx=0;exitDy=0;entryX=1;entryY=0.5;entryDx=0;entryDy=0;strokeWidth=2;dashed=1;strokeColor=#f1e9e9;" edge="1" parent="1" source="108" target="93">
                    <mxGeometry relative="1" as="geometry"/>
                </mxCell>
                <mxCell id="108" value="LocalStorageAdapter" style="rounded=1;whiteSpace=wrap;html=1;strokeColor=#f1e9e9;" parent="1" vertex="1">
                    <mxGeometry x="1294" y="288" width="175" height="60" as="geometry"/>
                </mxCell>
                <mxCell id="116" style="edgeStyle=none;html=1;exitX=0.5;exitY=0;exitDx=0;exitDy=0;entryX=0.5;entryY=1;entryDx=0;entryDy=0;fontSize=19;strokeWidth=2;dashed=1;strokeColor=#f1e9e9;" parent="1" source="113" target="114" edge="1">
                    <mxGeometry relative="1" as="geometry"/>
                </mxCell>
                <mxCell id="120" style="edgeStyle=none;html=1;exitX=1;exitY=0.5;exitDx=0;exitDy=0;entryX=0;entryY=0.5;entryDx=0;entryDy=0;fontSize=19;strokeWidth=2;strokeColor=#f1e9e9;" parent="1" source="113" target="117" edge="1">
                    <mxGeometry relative="1" as="geometry"/>
                </mxCell>
                <mxCell id="113" value="AxiosAdapter" style="rounded=1;whiteSpace=wrap;html=1;strokeColor=#f1e9e9;" parent="1" vertex="1">
                    <mxGeometry x="1294" y="196" width="175" height="60" as="geometry"/>
                </mxCell>
                <mxCell id="114" value="HttpPostRequestInterface" style="rounded=1;whiteSpace=wrap;html=1;fillColor=#0050ef;fontColor=#ffffff;strokeColor=#f1e9e9;" parent="1" vertex="1">
                    <mxGeometry x="1294" y="3" width="175" height="60" as="geometry"/>
                </mxCell>
                <mxCell id="117" value="Axios" style="rounded=1;whiteSpace=wrap;html=1;fillColor=#e3c800;fontColor=#000000;strokeColor=#f1e9e9;" parent="1" vertex="1">
                    <mxGeometry x="1542" y="196" width="175" height="60" as="geometry"/>
                </mxCell>
                <mxCell id="118" value="LocalStorage" style="rounded=1;whiteSpace=wrap;html=1;fillColor=#e3c800;fontColor=#000000;strokeColor=#f1e9e9;" parent="1" vertex="1">
                    <mxGeometry x="1542" y="288" width="175" height="60" as="geometry"/>
                </mxCell>
                <mxCell id="121" value="LoginServiceApi" style="rounded=1;whiteSpace=wrap;html=1;fillColor=#e3c800;fontColor=#000000;strokeColor=#f1e9e9;" vertex="1" parent="1">
                    <mxGeometry x="977" y="-179" width="175" height="60" as="geometry"/>
                </mxCell>
                <mxCell id="123" value="" style="rounded=0;whiteSpace=wrap;html=1;strokeColor=#005700;fillColor=#008a00;fontColor=#ffffff;" vertex="1" parent="1">
                    <mxGeometry x="419" y="126" width="312" height="271" as="geometry"/>
                </mxCell>
                <mxCell id="124" value="Presentation" style="text;html=1;strokeColor=none;fillColor=none;align=center;verticalAlign=middle;whiteSpace=wrap;rounded=0;fontSize=19;" vertex="1" parent="1">
                    <mxGeometry x="457" y="133" width="79" height="38" as="geometry"/>
                </mxCell>
                <mxCell id="126" style="edgeStyle=none;html=1;exitX=1;exitY=0.5;exitDx=0;exitDy=0;entryX=0;entryY=0.5;entryDx=0;entryDy=0;strokeWidth=2;strokeColor=#f1e9e9;" edge="1" parent="1" source="125" target="90">
                    <mxGeometry relative="1" as="geometry"/>
                </mxCell>
                <mxCell id="129" style="edgeStyle=none;html=1;exitX=0.5;exitY=1;exitDx=0;exitDy=0;entryX=0.5;entryY=0;entryDx=0;entryDy=0;strokeWidth=2;strokeColor=#f1e9e9;" edge="1" parent="1" source="125" target="127">
                    <mxGeometry relative="1" as="geometry"/>
                </mxCell>
                <mxCell id="165" style="edgeStyle=none;html=1;exitX=0.5;exitY=0;exitDx=0;exitDy=0;entryX=0.5;entryY=1;entryDx=0;entryDy=0;dashed=1;strokeColor=#f1e9e9;strokeWidth=2;fontColor=#f1e9e9;" edge="1" parent="1" source="125" target="164">
                    <mxGeometry relative="1" as="geometry"/>
                </mxCell>
                <mxCell id="125" value="LoginPage" style="rounded=1;whiteSpace=wrap;html=1;strokeColor=#f1e9e9;" vertex="1" parent="1">
                    <mxGeometry x="527" y="194" width="120" height="60" as="geometry"/>
                </mxCell>
                <mxCell id="127" value="ValidatorInterface" style="rounded=1;whiteSpace=wrap;html=1;fillColor=#0050ef;fontColor=#ffffff;strokeColor=#f1e9e9;" vertex="1" parent="1">
                    <mxGeometry x="527" y="305" width="120" height="60" as="geometry"/>
                </mxCell>
                <mxCell id="130" value="" style="rounded=0;whiteSpace=wrap;html=1;strokeColor=#005700;fillColor=#008a00;fontColor=#ffffff;" vertex="1" parent="1">
                    <mxGeometry x="419" y="420" width="778" height="252" as="geometry"/>
                </mxCell>
                <mxCell id="131" value="Validation" style="text;html=1;strokeColor=none;fillColor=none;align=center;verticalAlign=middle;whiteSpace=wrap;rounded=0;fontSize=19;" vertex="1" parent="1">
                    <mxGeometry x="436" y="427" width="79" height="38" as="geometry"/>
                </mxCell>
                <mxCell id="135" style="edgeStyle=none;html=1;exitX=0.5;exitY=0;exitDx=0;exitDy=0;entryX=0.5;entryY=1;entryDx=0;entryDy=0;strokeWidth=2;dashed=1;strokeColor=#f1e9e9;" edge="1" parent="1" source="133" target="127">
                    <mxGeometry relative="1" as="geometry"/>
                </mxCell>
                <mxCell id="142" style="edgeStyle=none;html=1;exitX=1;exitY=0.5;exitDx=0;exitDy=0;entryX=0;entryY=0.5;entryDx=0;entryDy=0;strokeWidth=2;strokeColor=#f1e9e9;" edge="1" parent="1" source="133" target="137">
                    <mxGeometry relative="1" as="geometry"/>
                </mxCell>
                <mxCell id="143" style="edgeStyle=none;html=1;exitX=1;exitY=0.75;exitDx=0;exitDy=0;entryX=0.5;entryY=1;entryDx=0;entryDy=0;strokeWidth=2;strokeColor=#f1e9e9;" edge="1" parent="1" source="133" target="138">
                    <mxGeometry relative="1" as="geometry">
                        <Array as="points">
                            <mxPoint x="693" y="516"/>
                            <mxPoint x="693" y="558"/>
                            <mxPoint x="968" y="558"/>
                        </Array>
                    </mxGeometry>
                </mxCell>
                <mxCell id="133" value="ValidatorComposite" style="rounded=1;whiteSpace=wrap;html=1;strokeColor=#f1e9e9;" vertex="1" parent="1">
                    <mxGeometry x="514.5" y="471" width="145" height="60" as="geometry"/>
                </mxCell>
                <mxCell id="144" style="edgeStyle=none;html=1;exitX=0.5;exitY=0;exitDx=0;exitDy=0;entryX=0.75;entryY=1;entryDx=0;entryDy=0;strokeWidth=2;dashed=1;strokeColor=#f1e9e9;" edge="1" parent="1" source="137" target="127">
                    <mxGeometry relative="1" as="geometry">
                        <Array as="points">
                            <mxPoint x="791" y="448"/>
                            <mxPoint x="617" y="446"/>
                        </Array>
                    </mxGeometry>
                </mxCell>
                <mxCell id="137" value="StringValidator" style="rounded=1;whiteSpace=wrap;html=1;strokeColor=#f1e9e9;" vertex="1" parent="1">
                    <mxGeometry x="718" y="471" width="145" height="60" as="geometry"/>
                </mxCell>
                <mxCell id="145" style="edgeStyle=none;html=1;exitX=0.5;exitY=0;exitDx=0;exitDy=0;entryX=1;entryY=0.5;entryDx=0;entryDy=0;strokeWidth=2;dashed=1;strokeColor=#f1e9e9;" edge="1" parent="1" source="138" target="127">
                    <mxGeometry relative="1" as="geometry">
                        <Array as="points">
                            <mxPoint x="968" y="434"/>
                            <mxPoint x="706" y="434"/>
                            <mxPoint x="706" y="337"/>
                        </Array>
                    </mxGeometry>
                </mxCell>
                <mxCell id="147" style="edgeStyle=none;html=1;exitX=1;exitY=0.5;exitDx=0;exitDy=0;entryX=0.5;entryY=0;entryDx=0;entryDy=0;strokeWidth=2;strokeColor=#f1e9e9;" edge="1" parent="1" source="138" target="146">
                    <mxGeometry relative="1" as="geometry">
                        <Array as="points">
                            <mxPoint x="1088" y="501"/>
                        </Array>
                    </mxGeometry>
                </mxCell>
                <mxCell id="138" value="EmailValidator" style="rounded=1;whiteSpace=wrap;html=1;strokeColor=#f1e9e9;" vertex="1" parent="1">
                    <mxGeometry x="895" y="471" width="145" height="60" as="geometry"/>
                </mxCell>
                <mxCell id="141" style="edgeStyle=none;html=1;exitX=1;exitY=0.5;exitDx=0;exitDy=0;entryX=0;entryY=0.5;entryDx=0;entryDy=0;strokeWidth=2;strokeColor=#f1e9e9;" edge="1" parent="1" source="139" target="140">
                    <mxGeometry relative="1" as="geometry"/>
                </mxCell>
                <mxCell id="148" style="edgeStyle=none;html=1;exitX=0;exitY=0.5;exitDx=0;exitDy=0;entryX=1;entryY=0.5;entryDx=0;entryDy=0;strokeWidth=2;dashed=1;strokeColor=#f1e9e9;" edge="1" parent="1" source="139" target="146">
                    <mxGeometry relative="1" as="geometry"/>
                </mxCell>
                <mxCell id="139" value="EmailValidatorAdapter" style="rounded=1;whiteSpace=wrap;html=1;strokeColor=#f1e9e9;" vertex="1" parent="1">
                    <mxGeometry x="1294" y="563" width="175" height="60" as="geometry"/>
                </mxCell>
                <mxCell id="140" value="EmailValidator" style="rounded=1;whiteSpace=wrap;html=1;fillColor=#e3c800;fontColor=#000000;strokeColor=#f1e9e9;" vertex="1" parent="1">
                    <mxGeometry x="1542" y="563" width="175" height="60" as="geometry"/>
                </mxCell>
                <mxCell id="146" value="EmailValidationInterface" style="rounded=1;whiteSpace=wrap;html=1;fillColor=#0050ef;fontColor=#ffffff;strokeColor=#f1e9e9;" vertex="1" parent="1">
                    <mxGeometry x="1007" y="563" width="162" height="60" as="geometry"/>
                </mxCell>
                <mxCell id="153" value="Main" style="text;html=1;strokeColor=none;fillColor=none;align=center;verticalAlign=middle;whiteSpace=wrap;rounded=0;fontSize=19;" vertex="1" parent="1">
                    <mxGeometry x="423" y="-54" width="79" height="38" as="geometry"/>
                </mxCell>
                <mxCell id="166" style="edgeStyle=none;html=1;exitX=0;exitY=0.5;exitDx=0;exitDy=0;entryX=1;entryY=0.5;entryDx=0;entryDy=0;strokeColor=#f1e9e9;strokeWidth=2;fontColor=#f1e9e9;" edge="1" parent="1" source="162" target="164">
                    <mxGeometry relative="1" as="geometry"/>
                </mxCell>
                <mxCell id="167" style="edgeStyle=none;html=1;exitX=0.5;exitY=0;exitDx=0;exitDy=0;strokeColor=#f1e9e9;strokeWidth=2;fontColor=#f1e9e9;" edge="1" parent="1" source="162" target="163">
                    <mxGeometry relative="1" as="geometry"/>
                </mxCell>
                <mxCell id="162" value="Routes" style="rounded=1;whiteSpace=wrap;html=1;strokeColor=#f1e9e9;" vertex="1" parent="1">
                    <mxGeometry x="704" y="-19" width="120" height="60" as="geometry"/>
                </mxCell>
                <mxCell id="163" value="React" style="rounded=1;whiteSpace=wrap;html=1;fillColor=#e3c800;fontColor=#000000;strokeColor=#f1e9e9;" vertex="1" parent="1">
                    <mxGeometry x="705.5" y="-155" width="117" height="60" as="geometry"/>
                </mxCell>
                <mxCell id="164" value="PageInterface" style="rounded=1;whiteSpace=wrap;html=1;strokeColor=#001DBC;fillColor=#0050ef;fontColor=#ffffff;" vertex="1" parent="1">
                    <mxGeometry x="527" y="-19" width="120" height="60" as="geometry"/>
                </mxCell>
            </root>
        </mxGraphModel>
    </diagram>
</mxfile>